 http://desibbrg.org/images/66952052392581364616.gif 
http://desibbrg.org/images/51530983469454945926.jpg 
http://desibbrg.org/images/58444057195911702227.jpg 
http://desibbrg.org/images/17501812474953127206.jpg 
http://desibbrg.org/images/28955670365926046865.jpg 
http://desibbrg.org/images/95353967344911740616.jpg

Info - 
Starring: Tupur Khedkar, Arun Kumar, Naresh Bidkar, Mohini Patel, Vaibhav Parab, Sunil Walavalkar. 
Writer: Dinanath Redkar. 
Director: Suhas Jadhav.
Plot - 
This is a hard hitting play focusing on the harsh realities of life brought upon by human greed and malice. The story revolves around an actress named Naina who deals with her drunk father, an ill mother, an uncertain lover and wealthy men who want a piece of her at any cost. 

Media Info - 
General
Complete name                  : Offer - Marathi Natak.mp4
Format                         : MPEG-4
Format profile                 : Base Media / Version 2
Codec ID                       : mp42
File size                      : 270 MiB
Duration                       : 1h 35mn
Overall bit rate mode          : Variable
Overall bit rate               : 396 Kbps

Video
ID                             : 1
Format                         : AVC
Format/Info                    : Advanced Video Codec
Format profile                 : Baseline@L2.1
Format settings, CABAC         : No
Format settings, ReFrames      : 1 frame
Format settings, GOP           : M=1, N=60
Codec ID                       : avc1
Codec ID/Info                  : Advanced Video Coding
Duration                       : 1h 35mn
Bit rate                       : 297 Kbps
Maximum bit rate               : 916 Kbps
Width                          : 480 pixels
Height                         : 360 pixels
Display aspect ratio           : 4:3
Frame rate mode                : Constant
Frame rate                     : 25.000 fps
Color space                    : YUV
Chroma subsampling             : 4:2:0
Bit depth                      : 8 bits
Scan type                      : Progressive
Bits/(Pixel*Frame)             : 0.069
Stream size                    : 203 MiB (75%)

Audio
ID                             : 2
Format                         : AAC
Format/Info                    : Advanced Audio Codec
Format profile                 : LC
Codec ID                       : 40
Duration                       : 1h 35mn
Bit rate mode                  : Variable
Bit rate                       : 96.0 Kbps
Maximum bit rate               : 101 Kbps
Channel(s)                     : 2 channels
Channel positions              : Front: L R
Sampling rate                  : 44.1 KHz
Compression mode               : Lossy
Stream size                    : 65.6 MiB (24%)

Ripper : Saket

Seeding 24x7... Extreme Seeding...


Enjoy!
